<svg width="870" height="166" viewBox="0 0 870 166" xmlns="http://www.w3.org/2000/svg"><g fill="#575756" fill-rule="evenodd"><path d="M13.748 161.846h94.637V133.61H13.748zM61.292 123.553c-8.535 0-16.542-1.588-24.006-4.786-7.443-3.175-13.947-7.525-19.448-13.059-5.513-5.535-9.879-12.023-13.048-19.503C1.584 78.735 0 70.81 0 62.396c0-8.56 1.584-16.58 4.79-24.035 3.17-7.48 7.535-13.981 13.048-19.503 5.5-5.524 12.005-9.886 19.448-13.07C44.75 2.599 52.688.999 61.062.999c8.387 0 16.322 1.6 23.789 4.789 7.443 3.184 13.922 7.546 19.446 13.07 5.514 5.522 9.867 12.023 13.05 19.503 3.18 7.456 4.79 15.474 4.79 24.035 0 8.413-1.61 16.34-4.79 23.81-3.183 7.479-7.536 13.967-13.05 19.502-5.524 5.534-11.968 9.884-19.343 13.059-7.374 3.198-15.266 4.786-23.662 4.786zm-.23-85.434c-6.684 0-12.233 2.335-16.666 7.006-4.435 4.673-6.64 10.428-6.64 17.271 0 6.686 2.205 12.337 6.64 16.927 4.433 4.602 10.074 6.882 16.896 6.882 6.674 0 12.244-2.28 16.68-6.882 4.432-4.59 6.626-10.24 6.626-16.927 0-3.417-.608-6.615-1.86-9.573-1.252-2.955-2.907-5.512-4.997-7.698-2.115-2.186-4.594-3.887-7.466-5.141-2.873-1.243-5.952-1.865-9.213-1.865zM143.329 161.845V6.372h59.67c7.458 0 14.475 1.44 21.09 4.305 6.608 2.875 12.362 6.799 17.255 11.76 4.893 4.98 8.73 10.758 11.53 17.373 2.804 6.594 4.194 13.623 4.194 21.068 0 7.145-1.355 13.98-4.066 20.492-2.732 6.536-6.537 12.314-11.43 17.374-4.893 5.043-10.647 9.045-17.253 11.992-6.603 2.946-13.713 4.417-21.32 4.417h-19.812v46.692H143.33zm39.858-84.973h18.655c4.191 0 7.798-1.506 10.831-4.522 3.043-3.015 4.537-6.835 4.537-11.472 0-4.625-1.425-8.491-4.307-11.588-2.872-3.094-6.57-4.636-11.061-4.636h-18.655v32.218zM590.786 161.846V3.104c1.094.934 3.734 3.304 7.939 7.11 4.193 3.823 9.245 8.379 15.137 13.659 5.917 5.293 12.199 10.942 18.875 16.927 6.684 6.008 13.025 11.678 19.007 17.054 5.986 5.36 11.179 9.988 15.612 13.875 4.42 3.901 7.259 6.396 8.51 7.48V6.142h38.918v158.74c-1.229-1.09-4.078-3.613-8.49-7.583-4.41-3.968-9.568-8.593-15.44-13.887-5.9-5.293-12.163-10.93-18.847-16.925a3151.713 3151.713 0 01-18.686-16.939 3880.433 3880.433 0 00-15.117-13.646c-4.263-3.82-6.928-6.19-8.019-7.122v73.065h-39.399zM746.004 161.846V6.371H869.76v38.284h-84.369v20.31h65.025v38.293H785.39v20.295h84.37v38.293zM486.396 165.598c-11.347 0-21.95-2.153-31.806-6.42-9.878-4.294-18.505-10.092-25.88-17.398-7.373-7.318-13.196-15.96-17.482-25.913-4.272-9.964-6.396-20.551-6.396-31.756 0-11.371 2.124-21.977 6.396-31.872 4.286-9.875 10.074-18.516 17.368-25.915 7.305-7.387 15.92-13.22 25.867-17.51 9.948-4.27 20.517-6.421 31.693-6.421 11.35 0 21.95 2.15 31.829 6.42 9.853 4.291 18.48 10.124 25.856 17.511 7.374 7.399 13.223 16.04 17.483 25.915 4.274 9.895 6.407 20.5 6.407 31.872 0 11.205-2.133 21.792-6.407 31.756-4.26 9.953-10.051 18.595-17.356 25.913-7.306 7.306-15.932 13.104-25.88 17.397-9.947 4.268-20.502 6.421-31.692 6.421zm-.24-124.442c-5.926 0-11.441 1.127-16.518 3.373-5.066 2.278-9.499 5.305-13.244 9.111-3.756 3.82-6.72 8.33-8.902 13.543-2.194 5.213-3.287 10.85-3.287 16.928 0 6.075 1.093 11.666 3.287 16.81 2.182 5.14 5.146 9.653 8.902 13.542 3.745 3.887 8.215 6.928 13.37 9.089 5.147 2.188 10.693 3.28 16.632 3.28 5.94 0 11.478-1.092 16.645-3.28 5.158-2.16 9.604-5.202 13.349-9.089 3.754-3.89 6.684-8.401 8.785-13.543 2.113-5.143 3.172-10.734 3.172-16.81 0-6.077-1.094-11.714-3.276-16.927-2.193-5.213-5.157-9.722-8.914-13.543-3.744-3.806-8.186-6.833-13.358-9.111-5.158-2.246-10.693-3.373-16.643-3.373zM327.894 165.597c-7.904 0-15.174-1.335-21.778-3.981-6.617-2.647-12.44-6.19-17.494-10.62-5.031-4.443-9.225-9.492-12.567-15.177-3.353-5.672-5.72-11.473-7.11-17.398 1.069-.148 3.377-.611 6.883-1.39a968.827 968.827 0 0111.3-2.453c4.033-.851 7.835-1.67 11.407-2.449 3.572-.772 5.984-1.326 7.236-1.634 1.862 5.602 4.893 10.08 9.085 13.427 4.182 3.336 9.167 5.017 14.923 5.017 5.89 0 10.67-1.704 14.311-5.132 3.664-3.429 5.95-8.102 6.88-14.016-.62-.159-2.905-1.014-6.88-2.575a4419.482 4419.482 0 00-14.438-5.593 3667.826 3667.826 0 00-18.415-7.007c-6.603-2.485-12.829-4.823-18.64-7.009-5.825-2.165-10.914-4.085-15.278-5.708-4.33-1.633-7.064-2.69-8.143-3.164a130.186 130.186 0 01-.46-6.063c-.161-2.486-.23-4.982-.23-7.48 0-8.548 1.493-16.639 4.538-24.277 3.031-7.617 7.26-14.269 12.691-19.952 5.446-5.683 11.9-10.193 19.345-13.554 7.466-3.339 15.69-5.017 24.719-5.017 7.904 0 15.207 1.286 21.893 3.866 6.672 2.555 12.624 6.03 17.84 10.38 5.19 4.371 9.556 9.41 13.047 15.175 3.492 5.766 5.938 11.91 7.34 18.447-1.402.32-3.768.862-7.1 1.632a339.96 339.96 0 01-10.843 2.335 672.58 672.58 0 00-11.2 2.336c-3.572.784-6.12 1.323-7.683 1.635-1.24-5.605-3.813-10.196-7.696-13.788-3.871-3.564-8.788-5.36-14.68-5.36-6.375 0-11.498 1.68-15.367 5.017-3.897 3.361-6.217 7.433-7.009 12.256.93.32 3.503 1.287 7.695 2.933 4.207 1.623 9.167 3.532 14.923 5.708 5.742 2.186 11.888 4.51 18.413 7.007 6.51 2.497 12.622 4.819 18.286 7.007 5.673 2.174 10.5 4.048 14.46 5.602 3.953 1.554 6.25 2.416 6.87 2.568.31 1.702.609 4.28.93 7.699.311 3.428.473 6.776.473 10.043 0 8.722-1.563 16.775-4.666 24.162-3.111 7.398-7.466 13.773-13.059 19.148-5.584 5.36-12.187 9.607-19.803 12.726-7.627 3.106-15.934 4.671-24.949 4.671"/></g></svg>